<svg id="book" xmlns="http://www.w3.org/2000/svg" width="24.659" height="18.839" viewBox="0 0 24.659 18.839">
  <g id="Group_52" data-name="Group 52">
    <g id="Group_51" data-name="Group 51" transform="translate(0 0)">
      <path id="Path_167" data-name="Path 167" d="M35.713,35.049h0a.87.87,0,0,0-.618.256.879.879,0,0,0-.26.626V49.163a.885.885,0,0,0,.884.882c2.054,0,5.5.433,7.869,2.917V39.115a.846.846,0,0,0-.121-.447C41.516,35.531,37.772,35.054,35.713,35.049Z" transform="translate(-31.941 -35.049)" fill="#90989f"/>
      <path id="Path_168" data-name="Path 168" d="M165.5,49.162V35.93a.879.879,0,0,0-.26-.626.87.87,0,0,0-.618-.256h0c-2.059,0-5.8.482-7.751,3.619a.846.846,0,0,0-.121.447V52.962c2.374-2.484,5.815-2.912,7.869-2.917A.885.885,0,0,0,165.5,49.162Z" transform="translate(-143.736 -35.048)" fill="#90989f"/>
      <path id="Path_169" data-name="Path 169" d="M181.021,71.8h-.64V82.864a2.258,2.258,0,0,1-2.25,2.252,9.787,9.787,0,0,0-6.649,2.27,21.243,21.243,0,0,1,9.342.18.882.882,0,0,0,1.08-.86V72.683A.883.883,0,0,0,181.021,71.8Z" transform="translate(-157.244 -68.749)" fill="#90989f"/>
      <path id="Path_170" data-name="Path 170" d="M1.522,82.864V71.8H.882A.883.883,0,0,0,0,72.683V86.707a.882.882,0,0,0,1.08.86,21.241,21.241,0,0,1,9.342-.18,9.787,9.787,0,0,0-6.649-2.27A2.258,2.258,0,0,1,1.522,82.864Z" transform="translate(0 -68.749)" fill="#90989f"/>
    </g>
  </g>
</svg>
