<svg id="home" xmlns="http://www.w3.org/2000/svg" width="21.232" height="19.77" viewBox="0 0 21.232 19.77">
  <g id="Group_28" data-name="Group 28">
    <g id="Group_27" data-name="Group 27" transform="translate(0 0)">
      <path id="Path_154" data-name="Path 154" d="M20.876,25.981l-3.218-3.218V19.046a1.217,1.217,0,0,0-2.434,0v1.283l-2.4-2.4a3.2,3.2,0,0,0-4.426,0L.357,25.981A1.217,1.217,0,1,0,2.078,27.7l8.045-8.046a.718.718,0,0,1,.985,0L19.154,27.7a1.217,1.217,0,1,0,1.722-1.721Z" transform="translate(-0.001 -17.047)" fill="#ff4033"/>
      <path id="Path_155" data-name="Path 155" d="M76.724,127.923a.6.6,0,0,0-.845,0L68.8,135a.6.6,0,0,0-.175.423v5.16a2.193,2.193,0,0,0,2.193,2.193h3.5v-5.426h3.956v5.426h3.5a2.193,2.193,0,0,0,2.193-2.193v-5.16A.6.6,0,0,0,83.8,135Z" transform="translate(-65.686 -123.003)" fill="#ff4033"/>
    </g>
  </g>
</svg>
