<svg id="result" xmlns="http://www.w3.org/2000/svg" width="18.208" height="19.615" viewBox="0 0 18.208 19.615">
  <g id="exam">
    <path id="Path_156" data-name="Path 156" d="M93.864,19.232V.383A.383.383,0,0,0,93.481,0H80.793a.383.383,0,0,0-.383.383V15.207h3.833a.575.575,0,0,1,.575.575v3.833h8.663A.383.383,0,0,0,93.864,19.232Zm-2.678-2.875H87.137a.575.575,0,1,1,0-1.149h4.049a.575.575,0,1,1,0,1.149ZM87.759,2.976h.964V2.048a.575.575,0,1,1,1.149,0v.928H90.8a.575.575,0,0,1,0,1.149h-.928v.964a.575.575,0,1,1-1.149,0V4.125h-.964a.575.575,0,1,1,0-1.149ZM82.937,7.845l1.451-3.81a.662.662,0,0,1,1.231.014l1.433,3.8a.575.575,0,0,1-1.075.406l-.217-.574H84.23l-.219.576a.575.575,0,0,1-1.074-.409Zm.151,4.131a.575.575,0,1,1,0-1.149h8.1a.575.575,0,1,1,0,1.149Z" transform="translate(-80.41 0)" fill="#90989f"/>
    <path id="Path_157" data-name="Path 157" d="M191.879,147.736l-.331.869h.659Z" transform="translate(-187.29 -142.076)" fill="#90989f"/>
    <path id="Path_158" data-name="Path 158" d="M104.048,426.948H101.6l2.446,2.446Z" transform="translate(-100.79 -410.592)" fill="#90989f"/>
  </g>
  <path id="Path_166" data-name="Path 166" d="M406.688,90.25v12.672a.548.548,0,0,0,.058.245l1.1,2.2a.549.549,0,0,0,.981,0l1.1-2.2a.549.549,0,0,0,.058-.245V90.25Z" transform="translate(-391.78 -86.95)" fill="#90989f"/>
  <g id="Group_48" data-name="Group 48" transform="translate(14.908)">
    <path id="Path_165" data-name="Path 165" d="M409.988,2.2V.549A.549.549,0,0,0,409.44,0h-2.2a.549.549,0,0,0-.549.549V2.2Z" transform="translate(-406.688)" fill="#90989f"/>
  </g>
</svg>
