<svg id="star-flat" xmlns="http://www.w3.org/2000/svg" width="371.96" height="232.309" viewBox="0 0 371.96 232.309">
  <g id="star-flat-2" data-name="star-flat" transform="translate(-30.503 -153.806)" opacity="0.08">
    <g id="Layer_x0020_1" transform="translate(30.503 153.806)">
      <path id="Path_185" data-name="Path 185" d="M272.656,273.551a1.4,1.4,0,0,1,.147.185l.071.1c.044.061.049.057.063.115a.877.877,0,0,1,.158.19l1.007,1.4a8.92,8.92,0,0,1-.547.8c-.069.1-.514.743-.58.784l-.332.477-2.327,3.264c-.087.123-.728.991-.772,1.1a.236.236,0,0,0,.145-.108c-.021-.041,1.457-1.489,1.513-1.545l3.9-3.906c.262-.26.545-.52.789-.788l.058-.027.01-.036c.176-.211,2.92-2.929,3.083-3.09.951-.94,1.944-1.977,2.9-2.9l.2-.214c.046.05.02-.03.015.049a.361.361,0,0,0,.159-.206,3.9,3.9,0,0,0-.482.331c-.358.255-3.249,2.35-3.391,2.412l-.187.143c-.226.19-2.267,1.625-2.3,1.634-.042.048.054.045-.1.037a4.19,4.19,0,0,1,.036.882,6.089,6.089,0,0,1,.022.9l-5.255-5.245c-.141-.146-.266-.266-.4-.41l-.784-.792c-.046-.09-.069-.079-.158-.128.072.146,2.654,3.644,2.936,4.029.074.1.141.185.215.288a3.138,3.138,0,0,1,.2.285Z" transform="translate(-260.646 -260.298)" fill-rule="evenodd"/>
      <path id="Path_186" data-name="Path 186" d="M403.858.252c.087.012.044-.011.063.072,0,0,0,.082,0,.089-.039.323-.013,2.535-.013,2.882l-.011,7.762c0,.289-.04,1.332.008,1.531l-2.034-.778a.725.725,0,0,0-.306-.092c.093.163,2.154,1.539,2.289,1.715.153.009.057.011.1-.037-.089.013-.044-.12-.047-.352,0-.141-.01-.288,0-.429.08-.006,1.249-.472,1.577-.588l.018-.006.668-.271c.143-.031.049-.006.084.012l.187-.143L403.93-.01l-.071.262Z" transform="translate(-388.642 0.01)" fill-rule="evenodd"/>
      <path id="Path_187" data-name="Path 187" d="M397.27,558.961l-.143.089c-.008.183.521,2.471.6,2.872.381,1.866.822,3.792,1.224,5.674.178.833.419,2.06.611,2.835.1.04.03.018.073-.006l0-12.325a7.416,7.416,0,0,0-1.19.424l-.741.288a1.512,1.512,0,0,1-.442.15Z" transform="translate(-384.351 -540.146)" fill-rule="evenodd"/>
      <path id="Path_188" data-name="Path 188" d="M473,532.394l0,12.325c-.043.024.032.046-.073.006l.069.276c.127-.44.221-.981.317-1.437l.944-4.375c.208-.968.426-1.943.631-2.918l.47-2.187a5.429,5.429,0,0,0,.147-.738.88.88,0,0,0-.237-.182c-.012.007.014.053-.132-.01l-.7-.26c-.042-.015-.092-.035-.135-.053l-1.242-.458c-.028-.239.034-.582-.014-.8l.047.007c-.036-.056.04-.045-.1-.052l-.025,0c.072.043.026-.028.046.093l0,.758Z" transform="translate(-457.706 -514.44)" fill-rule="evenodd"/>
      <path id="Path_189" data-name="Path 189" d="M396.875,19.538c.023.022,0,.017.057.047s.02.016.059.021a.732.732,0,0,1,.306.092l2.034.778c-.048-.2-.009-1.242-.008-1.531l.011-7.762c0-.347-.026-2.559.013-2.882,0-.007,0-.089,0-.089-.019-.083.024-.06-.063-.072L396.84,19.5c.038.062-.015,0,.035.042Z" transform="translate(-384.074 -7.878)" fill-rule="evenodd"/>
      <path id="Path_190" data-name="Path 190" d="M567.32,475.481a3.972,3.972,0,0,0,.293.383,7.42,7.42,0,0,0,.748-.115l2.235-.374c1-.175,2-.321,3-.5s2-.317,3-.5c.354-.066,2.855-.5,3.007-.487-.027-.026-.006-.014-.047-.035l-.123-.03c-.011.01-.007.056-.17.046-.392-.026-.89-.011-1.295-.013l-9.654,0c-.124,0-.649.03-.662-.037a4.028,4.028,0,0,1-.093.433l-.234,1.154c-.01.055-.014.016,0,.085Z" transform="translate(-549.059 -458.567)" fill-rule="evenodd"/>
      <path id="Path_191" data-name="Path 191" d="M0,472.635c.1-.022,5.383.9,5.984,1,1.5.237,2.994.517,4.485.759.5.081,1.043.2,1.53.253l.332-.477-.051-.018a3.976,3.976,0,0,0-.132-.763l-.169-.76c-.417.039-1.035,0-1.473,0l-7.282-.018c-.486,0-.975-.006-1.461,0-.248,0-.5-.007-.742,0-.123,0-.237,0-.359,0-.255,0-.325.042-.318-.055a.858.858,0,0,0-.341.084Z" transform="translate(0 -457.348)" fill-rule="evenodd"/>
      <path id="Path_192" data-name="Path 192" d="M10.595,413.91c-.007.1.063.058.318.055.122,0,.237.007.359,0,.246-.009.495,0,.742,0,.486,0,.975,0,1.461,0l7.282.018c.439,0,1.057.036,1.473,0,.007-.14.23-.947.257-1.192a2.243,2.243,0,0,1,.056-.3v-.13c-.014-.058-.02-.054-.063-.115l-.071-.1a1.4,1.4,0,0,0-.147-.185l-11.669,1.95Z" transform="translate(-10.253 -398.707)" fill-rule="evenodd"/>
      <path id="Path_193" data-name="Path 193" d="M567.46,412.633l.078.362c.06.221.181,1,.253,1.178.013.067.539.037.662.037l9.654,0c.405,0,.9-.013,1.295.013.162.011.159-.035.17-.046l-11.8-1.99a1.888,1.888,0,0,0-.308.443Z" transform="translate(-549.205 -398.929)" fill-rule="evenodd"/>
      <path id="Path_194" data-name="Path 194" d="M474,476.906c.141.006.065,0,.1.052.077-.006,1.479,1.056,1.645,1.177s.379.262.536.4a.871.871,0,0,1,.237.182c.09.036,1.941,1.412,2.075,1.509.348.254,1.737,1.3,2.051,1.494l-.169-.23c-.081-.012-.041.023-.122-.1l-1.1-1.106c-1.026-.987-2.175-2.177-3.208-3.212l-1.809-1.808c-.041-.039-.06-.062-.095-.1a.226.226,0,0,0-.049-.045c-.052-.035,0-.014-.061-.025l-.058.027c.04.047.021-.011.034.091l.009.79c0,.151-.012.3-.012.456s.056.336-.009.451Z" transform="translate(-458.732 -459.806)" fill-rule="evenodd"/>
      <path id="Path_195" data-name="Path 195" d="M476.11,287.334a7.744,7.744,0,0,0,1.321.01c.071,0,.145,0,.216.006.039,0,.085.013.12.015.115.008.006.028.12-.007.025-.016.007,0,.036-.029l1.126-1.542a1.89,1.89,0,0,1,.308-.443l.742-1.059c.243-.353,2.175-3,2.2-3.109.006-.079.031,0-.015-.049l-.2.214c-.954.923-1.947,1.96-2.9,2.9-.163.161-2.907,2.879-3.083,3.09Z" transform="translate(-460.794 -272.086)" fill-rule="evenodd"/>
      <path id="Path_196" data-name="Path 196" d="M281.133,482.14c.116-.041,2.6-1.842,2.81-2l.922-.65.143-.089c.042-.072,1.016-.753,1.17-.861.193-.134.391-.276.586-.42a3.786,3.786,0,0,0,.573-.431l.025,0c.064-.115.01-.31.009-.451s.016-.306.012-.456l-.009-.79c-.014-.1.005-.044-.034-.091-.245.269-.527.529-.789.788l-3.9,3.906c-.056.056-1.534,1.5-1.513,1.545Z" transform="translate(-272.089 -460.59)" fill-rule="evenodd"/>
      <path id="Path_197" data-name="Path 197" d="M280.605,277.545c-.135-.176-2.2-1.552-2.289-1.715-.04-.005-.019,0-.059-.021s-.034-.025-.057-.047a4.894,4.894,0,0,1-.5-.354c-.169-.12-.327-.24-.5-.363-.342-.245-.655-.488-.994-.731-.073-.052-1.891-1.415-1.987-1.433l.784.792c.137.144.263.264.4.411l5.255,5.245a6.043,6.043,0,0,0-.022-.9,4.145,4.145,0,0,0-.036-.882Z" transform="translate(-265.398 -264.101)" fill-rule="evenodd"/>
      <path id="Path_198" data-name="Path 198" d="M482.261,480.41l-3.194-4.382a3.87,3.87,0,0,1-.293-.383c-.084-.143-.205-.281-.3-.414s-.2-.28-.293-.4a7.611,7.611,0,0,1-.574-.825c-.115.035-.005.015-.12.007-.034,0-.081-.012-.12-.015-.07-.006-.145-.006-.216-.006a7.737,7.737,0,0,1-1.321-.01l-.01.036c.061.011.009-.01.061.025a.254.254,0,0,1,.049.045c.034.036.054.059.095.1l1.809,1.808c1.033,1.035,2.182,2.226,3.208,3.213l1.1,1.106c.081.124.041.089.122.1Z" transform="translate(-460.513 -458.732)" fill-rule="evenodd"/>
      <path id="Path_199" data-name="Path 199" d="M531.32,427.511a7.656,7.656,0,0,0,.574.825c.094.122.185.254.293.4s.218.27.3.414c-.016-.069-.012-.03,0-.085l.234-1.154a4.03,4.03,0,0,0,.093-.433c-.072-.176-.193-.957-.253-1.178l-.078-.362-1.126,1.542c-.03.03-.011.013-.036.029Z" transform="translate(-514.228 -412.237)" fill-rule="evenodd"/>
      <path id="Path_200" data-name="Path 200" d="M372.34,425.926l.169.76a3.975,3.975,0,0,1,.132.763l.051.018c.066-.041.511-.686.58-.784a8.96,8.96,0,0,0,.547-.8l-1.007-1.4a.878.878,0,0,0-.158-.19v.13a2.3,2.3,0,0,0-.056.3c-.026.244-.249,1.052-.257,1.192Z" transform="translate(-360.362 -410.65)" fill-rule="evenodd"/>
      <path id="Path_201" data-name="Path 201" d="M401.56,533.371a1.52,1.52,0,0,0,.442-.15l.741-.288a7.452,7.452,0,0,1,1.19-.424l0-.758c-.02-.121.026-.05-.046-.093a3.838,3.838,0,0,1-.573.431c-.2.145-.394.286-.586.42-.154.107-1.127.789-1.17.861Z" transform="translate(-388.642 -514.556)" fill-rule="evenodd"/>
      <path id="Path_202" data-name="Path 202" d="M474.115,366.782c.034-.009,2.075-1.444,2.3-1.634-.034-.018.06-.042-.084-.012l-.669.271-.018.006c-.328.116-1.5.582-1.577.588-.011.141,0,.288,0,.429,0,.232-.042.364.047.352Z" transform="translate(-458.808 -353.375)" fill-rule="evenodd"/>
      <path id="Path_203" data-name="Path 203" d="M478.628,534.5c-.158-.134-.364-.269-.536-.4s-1.568-1.184-1.645-1.177l-.047-.007c.048.216-.013.559.014.8l1.242.458c.043.018.093.038.135.053l.7.26C478.642,534.553,478.616,534.506,478.628,534.5Z" transform="translate(-461.074 -515.776)" fill-rule="evenodd"/>
    </g>
    <g id="Layer_x0020_1-2" data-name="Layer_x0020_1" transform="translate(140.248 235.181)">
      <path id="Path_185-2" data-name="Path 185" d="M272.656,273.551a1.4,1.4,0,0,1,.147.185l.071.1c.044.061.049.057.063.115a.877.877,0,0,1,.158.19l1.007,1.4a8.92,8.92,0,0,1-.547.8c-.069.1-.514.743-.58.784l-.332.477-2.327,3.264c-.087.123-.728.991-.772,1.1a.236.236,0,0,0,.145-.108c-.021-.041,1.457-1.489,1.513-1.545l3.9-3.906c.262-.26.545-.52.789-.788l.058-.027.01-.036c.176-.211,2.92-2.929,3.083-3.09.951-.94,1.944-1.977,2.9-2.9l.2-.214c.046.05.02-.03.015.049a.361.361,0,0,0,.159-.206,3.9,3.9,0,0,0-.482.331c-.358.255-3.249,2.35-3.391,2.412l-.187.143c-.226.19-2.267,1.625-2.3,1.634-.042.048.054.045-.1.037a4.19,4.19,0,0,1,.036.882,6.089,6.089,0,0,1,.022.9l-5.255-5.245c-.141-.146-.266-.266-.4-.41l-.784-.792c-.046-.09-.069-.079-.158-.128.072.146,2.654,3.644,2.936,4.029.074.1.141.185.215.288a3.138,3.138,0,0,1,.2.285Z" transform="translate(-260.646 -260.298)" fill-rule="evenodd"/>
      <path id="Path_186-2" data-name="Path 186" d="M403.858.252c.087.012.044-.011.063.072,0,0,0,.082,0,.089-.039.323-.013,2.535-.013,2.882l-.011,7.762c0,.289-.04,1.332.008,1.531l-2.034-.778a.725.725,0,0,0-.306-.092c.093.163,2.154,1.539,2.289,1.715.153.009.057.011.1-.037-.089.013-.044-.12-.047-.352,0-.141-.01-.288,0-.429.08-.006,1.249-.472,1.577-.588l.018-.006.668-.271c.143-.031.049-.006.084.012l.187-.143L403.93-.01l-.071.262Z" transform="translate(-388.642 0.01)" fill-rule="evenodd"/>
      <path id="Path_187-2" data-name="Path 187" d="M397.27,558.961l-.143.089c-.008.183.521,2.471.6,2.872.381,1.866.822,3.792,1.224,5.674.178.833.419,2.06.611,2.835.1.04.03.018.073-.006l0-12.325a7.416,7.416,0,0,0-1.19.424l-.741.288a1.512,1.512,0,0,1-.442.15Z" transform="translate(-384.351 -540.146)" fill-rule="evenodd"/>
      <path id="Path_188-2" data-name="Path 188" d="M473,532.394l0,12.325c-.043.024.032.046-.073.006l.069.276c.127-.44.221-.981.317-1.437l.944-4.375c.208-.968.426-1.943.631-2.918l.47-2.187a5.429,5.429,0,0,0,.147-.738.88.88,0,0,0-.237-.182c-.012.007.014.053-.132-.01l-.7-.26c-.042-.015-.092-.035-.135-.053l-1.242-.458c-.028-.239.034-.582-.014-.8l.047.007c-.036-.056.04-.045-.1-.052l-.025,0c.072.043.026-.028.046.093l0,.758Z" transform="translate(-457.706 -514.44)" fill-rule="evenodd"/>
      <path id="Path_189-2" data-name="Path 189" d="M396.875,19.538c.023.022,0,.017.057.047s.02.016.059.021a.732.732,0,0,1,.306.092l2.034.778c-.048-.2-.009-1.242-.008-1.531l.011-7.762c0-.347-.026-2.559.013-2.882,0-.007,0-.089,0-.089-.019-.083.024-.06-.063-.072L396.84,19.5c.038.062-.015,0,.035.042Z" transform="translate(-384.074 -7.878)" fill-rule="evenodd"/>
      <path id="Path_190-2" data-name="Path 190" d="M567.32,475.481a3.972,3.972,0,0,0,.293.383,7.42,7.42,0,0,0,.748-.115l2.235-.374c1-.175,2-.321,3-.5s2-.317,3-.5c.354-.066,2.855-.5,3.007-.487-.027-.026-.006-.014-.047-.035l-.123-.03c-.011.01-.007.056-.17.046-.392-.026-.89-.011-1.295-.013l-9.654,0c-.124,0-.649.03-.662-.037a4.028,4.028,0,0,1-.093.433l-.234,1.154c-.01.055-.014.016,0,.085Z" transform="translate(-549.059 -458.567)" fill-rule="evenodd"/>
      <path id="Path_191-2" data-name="Path 191" d="M0,472.635c.1-.022,5.383.9,5.984,1,1.5.237,2.994.517,4.485.759.5.081,1.043.2,1.53.253l.332-.477-.051-.018a3.976,3.976,0,0,0-.132-.763l-.169-.76c-.417.039-1.035,0-1.473,0l-7.282-.018c-.486,0-.975-.006-1.461,0-.248,0-.5-.007-.742,0-.123,0-.237,0-.359,0-.255,0-.325.042-.318-.055a.858.858,0,0,0-.341.084Z" transform="translate(0 -457.348)" fill-rule="evenodd"/>
      <path id="Path_192-2" data-name="Path 192" d="M10.595,413.91c-.007.1.063.058.318.055.122,0,.237.007.359,0,.246-.009.495,0,.742,0,.486,0,.975,0,1.461,0l7.282.018c.439,0,1.057.036,1.473,0,.007-.14.23-.947.257-1.192a2.243,2.243,0,0,1,.056-.3v-.13c-.014-.058-.02-.054-.063-.115l-.071-.1a1.4,1.4,0,0,0-.147-.185l-11.669,1.95Z" transform="translate(-10.253 -398.707)" fill-rule="evenodd"/>
      <path id="Path_193-2" data-name="Path 193" d="M567.46,412.633l.078.362c.06.221.181,1,.253,1.178.013.067.539.037.662.037l9.654,0c.405,0,.9-.013,1.295.013.162.011.159-.035.17-.046l-11.8-1.99a1.888,1.888,0,0,0-.308.443Z" transform="translate(-549.205 -398.929)" fill-rule="evenodd"/>
      <path id="Path_194-2" data-name="Path 194" d="M474,476.906c.141.006.065,0,.1.052.077-.006,1.479,1.056,1.645,1.177s.379.262.536.4a.871.871,0,0,1,.237.182c.09.036,1.941,1.412,2.075,1.509.348.254,1.737,1.3,2.051,1.494l-.169-.23c-.081-.012-.041.023-.122-.1l-1.1-1.106c-1.026-.987-2.175-2.177-3.208-3.212l-1.809-1.808c-.041-.039-.06-.062-.095-.1a.226.226,0,0,0-.049-.045c-.052-.035,0-.014-.061-.025l-.058.027c.04.047.021-.011.034.091l.009.79c0,.151-.012.3-.012.456s.056.336-.009.451Z" transform="translate(-458.732 -459.806)" fill-rule="evenodd"/>
      <path id="Path_195-2" data-name="Path 195" d="M476.11,287.334a7.744,7.744,0,0,0,1.321.01c.071,0,.145,0,.216.006.039,0,.085.013.12.015.115.008.006.028.12-.007.025-.016.007,0,.036-.029l1.126-1.542a1.89,1.89,0,0,1,.308-.443l.742-1.059c.243-.353,2.175-3,2.2-3.109.006-.079.031,0-.015-.049l-.2.214c-.954.923-1.947,1.96-2.9,2.9-.163.161-2.907,2.879-3.083,3.09Z" transform="translate(-460.794 -272.086)" fill-rule="evenodd"/>
      <path id="Path_196-2" data-name="Path 196" d="M281.133,482.14c.116-.041,2.6-1.842,2.81-2l.922-.65.143-.089c.042-.072,1.016-.753,1.17-.861.193-.134.391-.276.586-.42a3.786,3.786,0,0,0,.573-.431l.025,0c.064-.115.01-.31.009-.451s.016-.306.012-.456l-.009-.79c-.014-.1.005-.044-.034-.091-.245.269-.527.529-.789.788l-3.9,3.906c-.056.056-1.534,1.5-1.513,1.545Z" transform="translate(-272.089 -460.59)" fill-rule="evenodd"/>
      <path id="Path_197-2" data-name="Path 197" d="M280.605,277.545c-.135-.176-2.2-1.552-2.289-1.715-.04-.005-.019,0-.059-.021s-.034-.025-.057-.047a4.894,4.894,0,0,1-.5-.354c-.169-.12-.327-.24-.5-.363-.342-.245-.655-.488-.994-.731-.073-.052-1.891-1.415-1.987-1.433l.784.792c.137.144.263.264.4.411l5.255,5.245a6.043,6.043,0,0,0-.022-.9,4.145,4.145,0,0,0-.036-.882Z" transform="translate(-265.398 -264.101)" fill-rule="evenodd"/>
      <path id="Path_198-2" data-name="Path 198" d="M482.261,480.41l-3.194-4.382a3.87,3.87,0,0,1-.293-.383c-.084-.143-.205-.281-.3-.414s-.2-.28-.293-.4a7.611,7.611,0,0,1-.574-.825c-.115.035-.005.015-.12.007-.034,0-.081-.012-.12-.015-.07-.006-.145-.006-.216-.006a7.737,7.737,0,0,1-1.321-.01l-.01.036c.061.011.009-.01.061.025a.254.254,0,0,1,.049.045c.034.036.054.059.095.1l1.809,1.808c1.033,1.035,2.182,2.226,3.208,3.213l1.1,1.106c.081.124.041.089.122.1Z" transform="translate(-460.513 -458.732)" fill-rule="evenodd"/>
      <path id="Path_199-2" data-name="Path 199" d="M531.32,427.511a7.656,7.656,0,0,0,.574.825c.094.122.185.254.293.4s.218.27.3.414c-.016-.069-.012-.03,0-.085l.234-1.154a4.03,4.03,0,0,0,.093-.433c-.072-.176-.193-.957-.253-1.178l-.078-.362-1.126,1.542c-.03.03-.011.013-.036.029Z" transform="translate(-514.228 -412.237)" fill-rule="evenodd"/>
      <path id="Path_200-2" data-name="Path 200" d="M372.34,425.926l.169.76a3.975,3.975,0,0,1,.132.763l.051.018c.066-.041.511-.686.58-.784a8.96,8.96,0,0,0,.547-.8l-1.007-1.4a.878.878,0,0,0-.158-.19v.13a2.3,2.3,0,0,0-.056.3c-.026.244-.249,1.052-.257,1.192Z" transform="translate(-360.362 -410.65)" fill-rule="evenodd"/>
      <path id="Path_201-2" data-name="Path 201" d="M401.56,533.371a1.52,1.52,0,0,0,.442-.15l.741-.288a7.452,7.452,0,0,1,1.19-.424l0-.758c-.02-.121.026-.05-.046-.093a3.838,3.838,0,0,1-.573.431c-.2.145-.394.286-.586.42-.154.107-1.127.789-1.17.861Z" transform="translate(-388.642 -514.556)" fill-rule="evenodd"/>
      <path id="Path_202-2" data-name="Path 202" d="M474.115,366.782c.034-.009,2.075-1.444,2.3-1.634-.034-.018.06-.042-.084-.012l-.669.271-.018.006c-.328.116-1.5.582-1.577.588-.011.141,0,.288,0,.429,0,.232-.042.364.047.352Z" transform="translate(-458.808 -353.375)" fill-rule="evenodd"/>
      <path id="Path_203-2" data-name="Path 203" d="M478.628,534.5c-.158-.134-.364-.269-.536-.4s-1.568-1.184-1.645-1.177l-.047-.007c.048.216-.013.559.014.8l1.242.458c.043.018.093.038.135.053l.7.26C478.642,534.553,478.616,534.506,478.628,534.5Z" transform="translate(-461.074 -515.776)" fill-rule="evenodd"/>
    </g>
    <g id="Layer_x0020_1-3" data-name="Layer_x0020_1" transform="translate(109.04 355.554)">
      <path id="Path_185-3" data-name="Path 185" d="M272.656,273.551a1.4,1.4,0,0,1,.147.185l.071.1c.044.061.049.057.063.115a.877.877,0,0,1,.158.19l1.007,1.4a8.92,8.92,0,0,1-.547.8c-.069.1-.514.743-.58.784l-.332.477-2.327,3.264c-.087.123-.728.991-.772,1.1a.236.236,0,0,0,.145-.108c-.021-.041,1.457-1.489,1.513-1.545l3.9-3.906c.262-.26.545-.52.789-.788l.058-.027.01-.036c.176-.211,2.92-2.929,3.083-3.09.951-.94,1.944-1.977,2.9-2.9l.2-.214c.046.05.02-.03.015.049a.361.361,0,0,0,.159-.206,3.9,3.9,0,0,0-.482.331c-.358.255-3.249,2.35-3.391,2.412l-.187.143c-.226.19-2.267,1.625-2.3,1.634-.042.048.054.045-.1.037a4.19,4.19,0,0,1,.036.882,6.089,6.089,0,0,1,.022.9l-5.255-5.245c-.141-.146-.266-.266-.4-.41l-.784-.792c-.046-.09-.069-.079-.158-.128.072.146,2.654,3.644,2.936,4.029.074.1.141.185.215.288a3.138,3.138,0,0,1,.2.285Z" transform="translate(-260.646 -260.298)" fill-rule="evenodd"/>
      <path id="Path_186-3" data-name="Path 186" d="M403.858.252c.087.012.044-.011.063.072,0,0,0,.082,0,.089-.039.323-.013,2.535-.013,2.882l-.011,7.762c0,.289-.04,1.332.008,1.531l-2.034-.778a.725.725,0,0,0-.306-.092c.093.163,2.154,1.539,2.289,1.715.153.009.057.011.1-.037-.089.013-.044-.12-.047-.352,0-.141-.01-.288,0-.429.08-.006,1.249-.472,1.577-.588l.018-.006.668-.271c.143-.031.049-.006.084.012l.187-.143L403.93-.01l-.071.262Z" transform="translate(-388.642 0.01)" fill-rule="evenodd"/>
      <path id="Path_187-3" data-name="Path 187" d="M397.27,558.961l-.143.089c-.008.183.521,2.471.6,2.872.381,1.866.822,3.792,1.224,5.674.178.833.419,2.06.611,2.835.1.04.03.018.073-.006l0-12.325a7.416,7.416,0,0,0-1.19.424l-.741.288a1.512,1.512,0,0,1-.442.15Z" transform="translate(-384.351 -540.146)" fill-rule="evenodd"/>
      <path id="Path_188-3" data-name="Path 188" d="M473,532.394l0,12.325c-.043.024.032.046-.073.006l.069.276c.127-.44.221-.981.317-1.437l.944-4.375c.208-.968.426-1.943.631-2.918l.47-2.187a5.429,5.429,0,0,0,.147-.738.88.88,0,0,0-.237-.182c-.012.007.014.053-.132-.01l-.7-.26c-.042-.015-.092-.035-.135-.053l-1.242-.458c-.028-.239.034-.582-.014-.8l.047.007c-.036-.056.04-.045-.1-.052l-.025,0c.072.043.026-.028.046.093l0,.758Z" transform="translate(-457.706 -514.44)" fill-rule="evenodd"/>
      <path id="Path_189-3" data-name="Path 189" d="M396.875,19.538c.023.022,0,.017.057.047s.02.016.059.021a.732.732,0,0,1,.306.092l2.034.778c-.048-.2-.009-1.242-.008-1.531l.011-7.762c0-.347-.026-2.559.013-2.882,0-.007,0-.089,0-.089-.019-.083.024-.06-.063-.072L396.84,19.5c.038.062-.015,0,.035.042Z" transform="translate(-384.074 -7.878)" fill-rule="evenodd"/>
      <path id="Path_190-3" data-name="Path 190" d="M567.32,475.481a3.972,3.972,0,0,0,.293.383,7.42,7.42,0,0,0,.748-.115l2.235-.374c1-.175,2-.321,3-.5s2-.317,3-.5c.354-.066,2.855-.5,3.007-.487-.027-.026-.006-.014-.047-.035l-.123-.03c-.011.01-.007.056-.17.046-.392-.026-.89-.011-1.295-.013l-9.654,0c-.124,0-.649.03-.662-.037a4.028,4.028,0,0,1-.093.433l-.234,1.154c-.01.055-.014.016,0,.085Z" transform="translate(-549.059 -458.567)" fill-rule="evenodd"/>
      <path id="Path_191-3" data-name="Path 191" d="M0,472.635c.1-.022,5.383.9,5.984,1,1.5.237,2.994.517,4.485.759.5.081,1.043.2,1.53.253l.332-.477-.051-.018a3.976,3.976,0,0,0-.132-.763l-.169-.76c-.417.039-1.035,0-1.473,0l-7.282-.018c-.486,0-.975-.006-1.461,0-.248,0-.5-.007-.742,0-.123,0-.237,0-.359,0-.255,0-.325.042-.318-.055a.858.858,0,0,0-.341.084Z" transform="translate(0 -457.348)" fill-rule="evenodd"/>
      <path id="Path_192-3" data-name="Path 192" d="M10.595,413.91c-.007.1.063.058.318.055.122,0,.237.007.359,0,.246-.009.495,0,.742,0,.486,0,.975,0,1.461,0l7.282.018c.439,0,1.057.036,1.473,0,.007-.14.23-.947.257-1.192a2.243,2.243,0,0,1,.056-.3v-.13c-.014-.058-.02-.054-.063-.115l-.071-.1a1.4,1.4,0,0,0-.147-.185l-11.669,1.95Z" transform="translate(-10.253 -398.707)" fill-rule="evenodd"/>
      <path id="Path_193-3" data-name="Path 193" d="M567.46,412.633l.078.362c.06.221.181,1,.253,1.178.013.067.539.037.662.037l9.654,0c.405,0,.9-.013,1.295.013.162.011.159-.035.17-.046l-11.8-1.99a1.888,1.888,0,0,0-.308.443Z" transform="translate(-549.205 -398.929)" fill-rule="evenodd"/>
      <path id="Path_194-3" data-name="Path 194" d="M474,476.906c.141.006.065,0,.1.052.077-.006,1.479,1.056,1.645,1.177s.379.262.536.4a.871.871,0,0,1,.237.182c.09.036,1.941,1.412,2.075,1.509.348.254,1.737,1.3,2.051,1.494l-.169-.23c-.081-.012-.041.023-.122-.1l-1.1-1.106c-1.026-.987-2.175-2.177-3.208-3.212l-1.809-1.808c-.041-.039-.06-.062-.095-.1a.226.226,0,0,0-.049-.045c-.052-.035,0-.014-.061-.025l-.058.027c.04.047.021-.011.034.091l.009.79c0,.151-.012.3-.012.456s.056.336-.009.451Z" transform="translate(-458.732 -459.806)" fill-rule="evenodd"/>
      <path id="Path_195-3" data-name="Path 195" d="M476.11,287.334a7.744,7.744,0,0,0,1.321.01c.071,0,.145,0,.216.006.039,0,.085.013.12.015.115.008.006.028.12-.007.025-.016.007,0,.036-.029l1.126-1.542a1.89,1.89,0,0,1,.308-.443l.742-1.059c.243-.353,2.175-3,2.2-3.109.006-.079.031,0-.015-.049l-.2.214c-.954.923-1.947,1.96-2.9,2.9-.163.161-2.907,2.879-3.083,3.09Z" transform="translate(-460.794 -272.086)" fill-rule="evenodd"/>
      <path id="Path_196-3" data-name="Path 196" d="M281.133,482.14c.116-.041,2.6-1.842,2.81-2l.922-.65.143-.089c.042-.072,1.016-.753,1.17-.861.193-.134.391-.276.586-.42a3.786,3.786,0,0,0,.573-.431l.025,0c.064-.115.01-.31.009-.451s.016-.306.012-.456l-.009-.79c-.014-.1.005-.044-.034-.091-.245.269-.527.529-.789.788l-3.9,3.906c-.056.056-1.534,1.5-1.513,1.545Z" transform="translate(-272.089 -460.59)" fill-rule="evenodd"/>
      <path id="Path_197-3" data-name="Path 197" d="M280.605,277.545c-.135-.176-2.2-1.552-2.289-1.715-.04-.005-.019,0-.059-.021s-.034-.025-.057-.047a4.894,4.894,0,0,1-.5-.354c-.169-.12-.327-.24-.5-.363-.342-.245-.655-.488-.994-.731-.073-.052-1.891-1.415-1.987-1.433l.784.792c.137.144.263.264.4.411l5.255,5.245a6.043,6.043,0,0,0-.022-.9,4.145,4.145,0,0,0-.036-.882Z" transform="translate(-265.398 -264.101)" fill-rule="evenodd"/>
      <path id="Path_198-3" data-name="Path 198" d="M482.261,480.41l-3.194-4.382a3.87,3.87,0,0,1-.293-.383c-.084-.143-.205-.281-.3-.414s-.2-.28-.293-.4a7.611,7.611,0,0,1-.574-.825c-.115.035-.005.015-.12.007-.034,0-.081-.012-.12-.015-.07-.006-.145-.006-.216-.006a7.737,7.737,0,0,1-1.321-.01l-.01.036c.061.011.009-.01.061.025a.254.254,0,0,1,.049.045c.034.036.054.059.095.1l1.809,1.808c1.033,1.035,2.182,2.226,3.208,3.213l1.1,1.106c.081.124.041.089.122.1Z" transform="translate(-460.513 -458.732)" fill-rule="evenodd"/>
      <path id="Path_199-3" data-name="Path 199" d="M531.32,427.511a7.656,7.656,0,0,0,.574.825c.094.122.185.254.293.4s.218.27.3.414c-.016-.069-.012-.03,0-.085l.234-1.154a4.03,4.03,0,0,0,.093-.433c-.072-.176-.193-.957-.253-1.178l-.078-.362-1.126,1.542c-.03.03-.011.013-.036.029Z" transform="translate(-514.228 -412.237)" fill-rule="evenodd"/>
      <path id="Path_200-3" data-name="Path 200" d="M372.34,425.926l.169.76a3.975,3.975,0,0,1,.132.763l.051.018c.066-.041.511-.686.58-.784a8.96,8.96,0,0,0,.547-.8l-1.007-1.4a.878.878,0,0,0-.158-.19v.13a2.3,2.3,0,0,0-.056.3c-.026.244-.249,1.052-.257,1.192Z" transform="translate(-360.362 -410.65)" fill-rule="evenodd"/>
      <path id="Path_201-3" data-name="Path 201" d="M401.56,533.371a1.52,1.52,0,0,0,.442-.15l.741-.288a7.452,7.452,0,0,1,1.19-.424l0-.758c-.02-.121.026-.05-.046-.093a3.838,3.838,0,0,1-.573.431c-.2.145-.394.286-.586.42-.154.107-1.127.789-1.17.861Z" transform="translate(-388.642 -514.556)" fill-rule="evenodd"/>
      <path id="Path_202-3" data-name="Path 202" d="M474.115,366.782c.034-.009,2.075-1.444,2.3-1.634-.034-.018.06-.042-.084-.012l-.669.271-.018.006c-.328.116-1.5.582-1.577.588-.011.141,0,.288,0,.429,0,.232-.042.364.047.352Z" transform="translate(-458.808 -353.375)" fill-rule="evenodd"/>
      <path id="Path_203-3" data-name="Path 203" d="M478.628,534.5c-.158-.134-.364-.269-.536-.4s-1.568-1.184-1.645-1.177l-.047-.007c.048.216-.013.559.014.8l1.242.458c.043.018.093.038.135.053l.7.26C478.642,534.553,478.616,534.506,478.628,534.5Z" transform="translate(-461.074 -515.776)" fill-rule="evenodd"/>
    </g>
    <g id="Layer_x0020_1-4" data-name="Layer_x0020_1" transform="translate(276.207 175.087)">
      <path id="Path_185-4" data-name="Path 185" d="M272.656,273.551a1.4,1.4,0,0,1,.147.185l.071.1c.044.061.049.057.063.115a.877.877,0,0,1,.158.19l1.007,1.4a8.92,8.92,0,0,1-.547.8c-.069.1-.514.743-.58.784l-.332.477-2.327,3.264c-.087.123-.728.991-.772,1.1a.236.236,0,0,0,.145-.108c-.021-.041,1.457-1.489,1.513-1.545l3.9-3.906c.262-.26.545-.52.789-.788l.058-.027.01-.036c.176-.211,2.92-2.929,3.083-3.09.951-.94,1.944-1.977,2.9-2.9l.2-.214c.046.05.02-.03.015.049a.361.361,0,0,0,.159-.206,3.9,3.9,0,0,0-.482.331c-.358.255-3.249,2.35-3.391,2.412l-.187.143c-.226.19-2.267,1.625-2.3,1.634-.042.048.054.045-.1.037a4.19,4.19,0,0,1,.036.882,6.089,6.089,0,0,1,.022.9l-5.255-5.245c-.141-.146-.266-.266-.4-.41l-.784-.792c-.046-.09-.069-.079-.158-.128.072.146,2.654,3.644,2.936,4.029.074.1.141.185.215.288a3.138,3.138,0,0,1,.2.285Z" transform="translate(-260.646 -260.298)" fill-rule="evenodd"/>
      <path id="Path_186-4" data-name="Path 186" d="M403.858.252c.087.012.044-.011.063.072,0,0,0,.082,0,.089-.039.323-.013,2.535-.013,2.882l-.011,7.762c0,.289-.04,1.332.008,1.531l-2.034-.778a.725.725,0,0,0-.306-.092c.093.163,2.154,1.539,2.289,1.715.153.009.057.011.1-.037-.089.013-.044-.12-.047-.352,0-.141-.01-.288,0-.429.08-.006,1.249-.472,1.577-.588l.018-.006.668-.271c.143-.031.049-.006.084.012l.187-.143L403.93-.01l-.071.262Z" transform="translate(-388.642 0.01)" fill-rule="evenodd"/>
      <path id="Path_187-4" data-name="Path 187" d="M397.27,558.961l-.143.089c-.008.183.521,2.471.6,2.872.381,1.866.822,3.792,1.224,5.674.178.833.419,2.06.611,2.835.1.04.03.018.073-.006l0-12.325a7.416,7.416,0,0,0-1.19.424l-.741.288a1.512,1.512,0,0,1-.442.15Z" transform="translate(-384.351 -540.146)" fill-rule="evenodd"/>
      <path id="Path_188-4" data-name="Path 188" d="M473,532.394l0,12.325c-.043.024.032.046-.073.006l.069.276c.127-.44.221-.981.317-1.437l.944-4.375c.208-.968.426-1.943.631-2.918l.47-2.187a5.429,5.429,0,0,0,.147-.738.88.88,0,0,0-.237-.182c-.012.007.014.053-.132-.01l-.7-.26c-.042-.015-.092-.035-.135-.053l-1.242-.458c-.028-.239.034-.582-.014-.8l.047.007c-.036-.056.04-.045-.1-.052l-.025,0c.072.043.026-.028.046.093l0,.758Z" transform="translate(-457.706 -514.44)" fill-rule="evenodd"/>
      <path id="Path_189-4" data-name="Path 189" d="M396.875,19.538c.023.022,0,.017.057.047s.02.016.059.021a.732.732,0,0,1,.306.092l2.034.778c-.048-.2-.009-1.242-.008-1.531l.011-7.762c0-.347-.026-2.559.013-2.882,0-.007,0-.089,0-.089-.019-.083.024-.06-.063-.072L396.84,19.5c.038.062-.015,0,.035.042Z" transform="translate(-384.074 -7.878)" fill-rule="evenodd"/>
      <path id="Path_190-4" data-name="Path 190" d="M567.32,475.481a3.972,3.972,0,0,0,.293.383,7.42,7.42,0,0,0,.748-.115l2.235-.374c1-.175,2-.321,3-.5s2-.317,3-.5c.354-.066,2.855-.5,3.007-.487-.027-.026-.006-.014-.047-.035l-.123-.03c-.011.01-.007.056-.17.046-.392-.026-.89-.011-1.295-.013l-9.654,0c-.124,0-.649.03-.662-.037a4.028,4.028,0,0,1-.093.433l-.234,1.154c-.01.055-.014.016,0,.085Z" transform="translate(-549.059 -458.567)" fill-rule="evenodd"/>
      <path id="Path_191-4" data-name="Path 191" d="M0,472.635c.1-.022,5.383.9,5.984,1,1.5.237,2.994.517,4.485.759.5.081,1.043.2,1.53.253l.332-.477-.051-.018a3.976,3.976,0,0,0-.132-.763l-.169-.76c-.417.039-1.035,0-1.473,0l-7.282-.018c-.486,0-.975-.006-1.461,0-.248,0-.5-.007-.742,0-.123,0-.237,0-.359,0-.255,0-.325.042-.318-.055a.858.858,0,0,0-.341.084Z" transform="translate(0 -457.348)" fill-rule="evenodd"/>
      <path id="Path_192-4" data-name="Path 192" d="M10.595,413.91c-.007.1.063.058.318.055.122,0,.237.007.359,0,.246-.009.495,0,.742,0,.486,0,.975,0,1.461,0l7.282.018c.439,0,1.057.036,1.473,0,.007-.14.23-.947.257-1.192a2.243,2.243,0,0,1,.056-.3v-.13c-.014-.058-.02-.054-.063-.115l-.071-.1a1.4,1.4,0,0,0-.147-.185l-11.669,1.95Z" transform="translate(-10.253 -398.707)" fill-rule="evenodd"/>
      <path id="Path_193-4" data-name="Path 193" d="M567.46,412.633l.078.362c.06.221.181,1,.253,1.178.013.067.539.037.662.037l9.654,0c.405,0,.9-.013,1.295.013.162.011.159-.035.17-.046l-11.8-1.99a1.888,1.888,0,0,0-.308.443Z" transform="translate(-549.205 -398.929)" fill-rule="evenodd"/>
      <path id="Path_194-4" data-name="Path 194" d="M474,476.906c.141.006.065,0,.1.052.077-.006,1.479,1.056,1.645,1.177s.379.262.536.4a.871.871,0,0,1,.237.182c.09.036,1.941,1.412,2.075,1.509.348.254,1.737,1.3,2.051,1.494l-.169-.23c-.081-.012-.041.023-.122-.1l-1.1-1.106c-1.026-.987-2.175-2.177-3.208-3.212l-1.809-1.808c-.041-.039-.06-.062-.095-.1a.226.226,0,0,0-.049-.045c-.052-.035,0-.014-.061-.025l-.058.027c.04.047.021-.011.034.091l.009.79c0,.151-.012.3-.012.456s.056.336-.009.451Z" transform="translate(-458.732 -459.806)" fill-rule="evenodd"/>
      <path id="Path_195-4" data-name="Path 195" d="M476.11,287.334a7.744,7.744,0,0,0,1.321.01c.071,0,.145,0,.216.006.039,0,.085.013.12.015.115.008.006.028.12-.007.025-.016.007,0,.036-.029l1.126-1.542a1.89,1.89,0,0,1,.308-.443l.742-1.059c.243-.353,2.175-3,2.2-3.109.006-.079.031,0-.015-.049l-.2.214c-.954.923-1.947,1.96-2.9,2.9-.163.161-2.907,2.879-3.083,3.09Z" transform="translate(-460.794 -272.086)" fill-rule="evenodd"/>
      <path id="Path_196-4" data-name="Path 196" d="M281.133,482.14c.116-.041,2.6-1.842,2.81-2l.922-.65.143-.089c.042-.072,1.016-.753,1.17-.861.193-.134.391-.276.586-.42a3.786,3.786,0,0,0,.573-.431l.025,0c.064-.115.01-.31.009-.451s.016-.306.012-.456l-.009-.79c-.014-.1.005-.044-.034-.091-.245.269-.527.529-.789.788l-3.9,3.906c-.056.056-1.534,1.5-1.513,1.545Z" transform="translate(-272.089 -460.59)" fill-rule="evenodd"/>
      <path id="Path_197-4" data-name="Path 197" d="M280.605,277.545c-.135-.176-2.2-1.552-2.289-1.715-.04-.005-.019,0-.059-.021s-.034-.025-.057-.047a4.894,4.894,0,0,1-.5-.354c-.169-.12-.327-.24-.5-.363-.342-.245-.655-.488-.994-.731-.073-.052-1.891-1.415-1.987-1.433l.784.792c.137.144.263.264.4.411l5.255,5.245a6.043,6.043,0,0,0-.022-.9,4.145,4.145,0,0,0-.036-.882Z" transform="translate(-265.398 -264.101)" fill-rule="evenodd"/>
      <path id="Path_198-4" data-name="Path 198" d="M482.261,480.41l-3.194-4.382a3.87,3.87,0,0,1-.293-.383c-.084-.143-.205-.281-.3-.414s-.2-.28-.293-.4a7.611,7.611,0,0,1-.574-.825c-.115.035-.005.015-.12.007-.034,0-.081-.012-.12-.015-.07-.006-.145-.006-.216-.006a7.737,7.737,0,0,1-1.321-.01l-.01.036c.061.011.009-.01.061.025a.254.254,0,0,1,.049.045c.034.036.054.059.095.1l1.809,1.808c1.033,1.035,2.182,2.226,3.208,3.213l1.1,1.106c.081.124.041.089.122.1Z" transform="translate(-460.513 -458.732)" fill-rule="evenodd"/>
      <path id="Path_199-4" data-name="Path 199" d="M531.32,427.511a7.656,7.656,0,0,0,.574.825c.094.122.185.254.293.4s.218.27.3.414c-.016-.069-.012-.03,0-.085l.234-1.154a4.03,4.03,0,0,0,.093-.433c-.072-.176-.193-.957-.253-1.178l-.078-.362-1.126,1.542c-.03.03-.011.013-.036.029Z" transform="translate(-514.228 -412.237)" fill-rule="evenodd"/>
      <path id="Path_200-4" data-name="Path 200" d="M372.34,425.926l.169.76a3.975,3.975,0,0,1,.132.763l.051.018c.066-.041.511-.686.58-.784a8.96,8.96,0,0,0,.547-.8l-1.007-1.4a.878.878,0,0,0-.158-.19v.13a2.3,2.3,0,0,0-.056.3c-.026.244-.249,1.052-.257,1.192Z" transform="translate(-360.362 -410.65)" fill-rule="evenodd"/>
      <path id="Path_201-4" data-name="Path 201" d="M401.56,533.371a1.52,1.52,0,0,0,.442-.15l.741-.288a7.452,7.452,0,0,1,1.19-.424l0-.758c-.02-.121.026-.05-.046-.093a3.838,3.838,0,0,1-.573.431c-.2.145-.394.286-.586.42-.154.107-1.127.789-1.17.861Z" transform="translate(-388.642 -514.556)" fill-rule="evenodd"/>
      <path id="Path_202-4" data-name="Path 202" d="M474.115,366.782c.034-.009,2.075-1.444,2.3-1.634-.034-.018.06-.042-.084-.012l-.669.271-.018.006c-.328.116-1.5.582-1.577.588-.011.141,0,.288,0,.429,0,.232-.042.364.047.352Z" transform="translate(-458.808 -353.375)" fill-rule="evenodd"/>
      <path id="Path_203-4" data-name="Path 203" d="M478.628,534.5c-.158-.134-.364-.269-.536-.4s-1.568-1.184-1.645-1.177l-.047-.007c.048.216-.013.559.014.8l1.242.458c.043.018.093.038.135.053l.7.26C478.642,534.553,478.616,534.506,478.628,534.5Z" transform="translate(-461.074 -515.776)" fill-rule="evenodd"/>
    </g>
    <g id="Layer_x0020_1-5" data-name="Layer_x0020_1" transform="translate(371.927 278.226)">
      <path id="Path_185-5" data-name="Path 185" d="M272.656,273.551a1.4,1.4,0,0,1,.147.185l.071.1c.044.061.049.057.063.115a.877.877,0,0,1,.158.19l1.007,1.4a8.92,8.92,0,0,1-.547.8c-.069.1-.514.743-.58.784l-.332.477-2.327,3.264c-.087.123-.728.991-.772,1.1a.236.236,0,0,0,.145-.108c-.021-.041,1.457-1.489,1.513-1.545l3.9-3.906c.262-.26.545-.52.789-.788l.058-.027.01-.036c.176-.211,2.92-2.929,3.083-3.09.951-.94,1.944-1.977,2.9-2.9l.2-.214c.046.05.02-.03.015.049a.361.361,0,0,0,.159-.206,3.9,3.9,0,0,0-.482.331c-.358.255-3.249,2.35-3.391,2.412l-.187.143c-.226.19-2.267,1.625-2.3,1.634-.042.048.054.045-.1.037a4.19,4.19,0,0,1,.036.882,6.089,6.089,0,0,1,.022.9l-5.255-5.245c-.141-.146-.266-.266-.4-.41l-.784-.792c-.046-.09-.069-.079-.158-.128.072.146,2.654,3.644,2.936,4.029.074.1.141.185.215.288a3.138,3.138,0,0,1,.2.285Z" transform="translate(-260.646 -260.298)" fill-rule="evenodd"/>
      <path id="Path_186-5" data-name="Path 186" d="M403.858.252c.087.012.044-.011.063.072,0,0,0,.082,0,.089-.039.323-.013,2.535-.013,2.882l-.011,7.762c0,.289-.04,1.332.008,1.531l-2.034-.778a.725.725,0,0,0-.306-.092c.093.163,2.154,1.539,2.289,1.715.153.009.057.011.1-.037-.089.013-.044-.12-.047-.352,0-.141-.01-.288,0-.429.08-.006,1.249-.472,1.577-.588l.018-.006.668-.271c.143-.031.049-.006.084.012l.187-.143L403.93-.01l-.071.262Z" transform="translate(-388.642 0.01)" fill-rule="evenodd"/>
      <path id="Path_187-5" data-name="Path 187" d="M397.27,558.961l-.143.089c-.008.183.521,2.471.6,2.872.381,1.866.822,3.792,1.224,5.674.178.833.419,2.06.611,2.835.1.04.03.018.073-.006l0-12.325a7.416,7.416,0,0,0-1.19.424l-.741.288a1.512,1.512,0,0,1-.442.15Z" transform="translate(-384.351 -540.146)" fill-rule="evenodd"/>
      <path id="Path_188-5" data-name="Path 188" d="M473,532.394l0,12.325c-.043.024.032.046-.073.006l.069.276c.127-.44.221-.981.317-1.437l.944-4.375c.208-.968.426-1.943.631-2.918l.47-2.187a5.429,5.429,0,0,0,.147-.738.88.88,0,0,0-.237-.182c-.012.007.014.053-.132-.01l-.7-.26c-.042-.015-.092-.035-.135-.053l-1.242-.458c-.028-.239.034-.582-.014-.8l.047.007c-.036-.056.04-.045-.1-.052l-.025,0c.072.043.026-.028.046.093l0,.758Z" transform="translate(-457.706 -514.44)" fill-rule="evenodd"/>
      <path id="Path_189-5" data-name="Path 189" d="M396.875,19.538c.023.022,0,.017.057.047s.02.016.059.021a.732.732,0,0,1,.306.092l2.034.778c-.048-.2-.009-1.242-.008-1.531l.011-7.762c0-.347-.026-2.559.013-2.882,0-.007,0-.089,0-.089-.019-.083.024-.06-.063-.072L396.84,19.5c.038.062-.015,0,.035.042Z" transform="translate(-384.074 -7.878)" fill-rule="evenodd"/>
      <path id="Path_190-5" data-name="Path 190" d="M567.32,475.481a3.972,3.972,0,0,0,.293.383,7.42,7.42,0,0,0,.748-.115l2.235-.374c1-.175,2-.321,3-.5s2-.317,3-.5c.354-.066,2.855-.5,3.007-.487-.027-.026-.006-.014-.047-.035l-.123-.03c-.011.01-.007.056-.17.046-.392-.026-.89-.011-1.295-.013l-9.654,0c-.124,0-.649.03-.662-.037a4.028,4.028,0,0,1-.093.433l-.234,1.154c-.01.055-.014.016,0,.085Z" transform="translate(-549.059 -458.567)" fill-rule="evenodd"/>
      <path id="Path_191-5" data-name="Path 191" d="M0,472.635c.1-.022,5.383.9,5.984,1,1.5.237,2.994.517,4.485.759.5.081,1.043.2,1.53.253l.332-.477-.051-.018a3.976,3.976,0,0,0-.132-.763l-.169-.76c-.417.039-1.035,0-1.473,0l-7.282-.018c-.486,0-.975-.006-1.461,0-.248,0-.5-.007-.742,0-.123,0-.237,0-.359,0-.255,0-.325.042-.318-.055a.858.858,0,0,0-.341.084Z" transform="translate(0 -457.348)" fill-rule="evenodd"/>
      <path id="Path_192-5" data-name="Path 192" d="M10.595,413.91c-.007.1.063.058.318.055.122,0,.237.007.359,0,.246-.009.495,0,.742,0,.486,0,.975,0,1.461,0l7.282.018c.439,0,1.057.036,1.473,0,.007-.14.23-.947.257-1.192a2.243,2.243,0,0,1,.056-.3v-.13c-.014-.058-.02-.054-.063-.115l-.071-.1a1.4,1.4,0,0,0-.147-.185l-11.669,1.95Z" transform="translate(-10.253 -398.707)" fill-rule="evenodd"/>
      <path id="Path_193-5" data-name="Path 193" d="M567.46,412.633l.078.362c.06.221.181,1,.253,1.178.013.067.539.037.662.037l9.654,0c.405,0,.9-.013,1.295.013.162.011.159-.035.17-.046l-11.8-1.99a1.888,1.888,0,0,0-.308.443Z" transform="translate(-549.205 -398.929)" fill-rule="evenodd"/>
      <path id="Path_194-5" data-name="Path 194" d="M474,476.906c.141.006.065,0,.1.052.077-.006,1.479,1.056,1.645,1.177s.379.262.536.4a.871.871,0,0,1,.237.182c.09.036,1.941,1.412,2.075,1.509.348.254,1.737,1.3,2.051,1.494l-.169-.23c-.081-.012-.041.023-.122-.1l-1.1-1.106c-1.026-.987-2.175-2.177-3.208-3.212l-1.809-1.808c-.041-.039-.06-.062-.095-.1a.226.226,0,0,0-.049-.045c-.052-.035,0-.014-.061-.025l-.058.027c.04.047.021-.011.034.091l.009.79c0,.151-.012.3-.012.456s.056.336-.009.451Z" transform="translate(-458.732 -459.806)" fill-rule="evenodd"/>
      <path id="Path_195-5" data-name="Path 195" d="M476.11,287.334a7.744,7.744,0,0,0,1.321.01c.071,0,.145,0,.216.006.039,0,.085.013.12.015.115.008.006.028.12-.007.025-.016.007,0,.036-.029l1.126-1.542a1.89,1.89,0,0,1,.308-.443l.742-1.059c.243-.353,2.175-3,2.2-3.109.006-.079.031,0-.015-.049l-.2.214c-.954.923-1.947,1.96-2.9,2.9-.163.161-2.907,2.879-3.083,3.09Z" transform="translate(-460.794 -272.086)" fill-rule="evenodd"/>
      <path id="Path_196-5" data-name="Path 196" d="M281.133,482.14c.116-.041,2.6-1.842,2.81-2l.922-.65.143-.089c.042-.072,1.016-.753,1.17-.861.193-.134.391-.276.586-.42a3.786,3.786,0,0,0,.573-.431l.025,0c.064-.115.01-.31.009-.451s.016-.306.012-.456l-.009-.79c-.014-.1.005-.044-.034-.091-.245.269-.527.529-.789.788l-3.9,3.906c-.056.056-1.534,1.5-1.513,1.545Z" transform="translate(-272.089 -460.59)" fill-rule="evenodd"/>
      <path id="Path_197-5" data-name="Path 197" d="M280.605,277.545c-.135-.176-2.2-1.552-2.289-1.715-.04-.005-.019,0-.059-.021s-.034-.025-.057-.047a4.894,4.894,0,0,1-.5-.354c-.169-.12-.327-.24-.5-.363-.342-.245-.655-.488-.994-.731-.073-.052-1.891-1.415-1.987-1.433l.784.792c.137.144.263.264.4.411l5.255,5.245a6.043,6.043,0,0,0-.022-.9,4.145,4.145,0,0,0-.036-.882Z" transform="translate(-265.398 -264.101)" fill-rule="evenodd"/>
      <path id="Path_198-5" data-name="Path 198" d="M482.261,480.41l-3.194-4.382a3.87,3.87,0,0,1-.293-.383c-.084-.143-.205-.281-.3-.414s-.2-.28-.293-.4a7.611,7.611,0,0,1-.574-.825c-.115.035-.005.015-.12.007-.034,0-.081-.012-.12-.015-.07-.006-.145-.006-.216-.006a7.737,7.737,0,0,1-1.321-.01l-.01.036c.061.011.009-.01.061.025a.254.254,0,0,1,.049.045c.034.036.054.059.095.1l1.809,1.808c1.033,1.035,2.182,2.226,3.208,3.213l1.1,1.106c.081.124.041.089.122.1Z" transform="translate(-460.513 -458.732)" fill-rule="evenodd"/>
      <path id="Path_199-5" data-name="Path 199" d="M531.32,427.511a7.656,7.656,0,0,0,.574.825c.094.122.185.254.293.4s.218.27.3.414c-.016-.069-.012-.03,0-.085l.234-1.154a4.03,4.03,0,0,0,.093-.433c-.072-.176-.193-.957-.253-1.178l-.078-.362-1.126,1.542c-.03.03-.011.013-.036.029Z" transform="translate(-514.228 -412.237)" fill-rule="evenodd"/>
      <path id="Path_200-5" data-name="Path 200" d="M372.34,425.926l.169.76a3.975,3.975,0,0,1,.132.763l.051.018c.066-.041.511-.686.58-.784a8.96,8.96,0,0,0,.547-.8l-1.007-1.4a.878.878,0,0,0-.158-.19v.13a2.3,2.3,0,0,0-.056.3c-.026.244-.249,1.052-.257,1.192Z" transform="translate(-360.362 -410.65)" fill-rule="evenodd"/>
      <path id="Path_201-5" data-name="Path 201" d="M401.56,533.371a1.52,1.52,0,0,0,.442-.15l.741-.288a7.452,7.452,0,0,1,1.19-.424l0-.758c-.02-.121.026-.05-.046-.093a3.838,3.838,0,0,1-.573.431c-.2.145-.394.286-.586.42-.154.107-1.127.789-1.17.861Z" transform="translate(-388.642 -514.556)" fill-rule="evenodd"/>
      <path id="Path_202-5" data-name="Path 202" d="M474.115,366.782c.034-.009,2.075-1.444,2.3-1.634-.034-.018.06-.042-.084-.012l-.669.271-.018.006c-.328.116-1.5.582-1.577.588-.011.141,0,.288,0,.429,0,.232-.042.364.047.352Z" transform="translate(-458.808 -353.375)" fill-rule="evenodd"/>
      <path id="Path_203-5" data-name="Path 203" d="M478.628,534.5c-.158-.134-.364-.269-.536-.4s-1.568-1.184-1.645-1.177l-.047-.007c.048.216-.013.559.014.8l1.242.458c.043.018.093.038.135.053l.7.26C478.642,534.553,478.616,534.506,478.628,534.5Z" transform="translate(-461.074 -515.776)" fill-rule="evenodd"/>
    </g>
  </g>
</svg>
